<?xml version="1.0" encoding="UTF-8" standalone="no"?>
<svg width="800" height="500" viewBox="0 0 800 500" fill="none" xmlns="http://www.w3.org/2000/svg">
  <!-- Background -->
  <rect width="800" height="500" rx="10" fill="#1F2937"/>
  
  <!-- Chat interface -->
  <rect x="50" y="50" width="700" height="400" rx="8" fill="#111827"/>
  
  <!-- Header -->
  <rect x="50" y="50" width="700" height="60" rx="8" fill="#374151"/>
  <circle cx="90" cy="80" r="15" fill="#4F46E5"/>
  <rect x="120" y="70" width="120" height="10" rx="5" fill="#9CA3AF"/>
  <rect x="120" y="90" width="80" height="6" rx="3" fill="#6B7280"/>
  
  <!-- Messages -->
  <!-- Message 1 - User -->
  <rect x="400" y="140" width="300" height="60" rx="8" fill="#4F46E5"/>
  <rect x="420" y="150" width="260" height="8" rx="4" fill="#A5B4FC"/>
  <rect x="420" y="170" width="200" height="8" rx="4" fill="#A5B4FC"/>
  <rect x="420" y="190" width="240" height="8" rx="4" fill="#A5B4FC"/>
  
  <!-- Message 2 - AI -->
  <rect x="100" y="220" width="300" height="80" rx="8" fill="#374151"/>
  <circle cx="80" cy="260" r="15" fill="#4F46E5"/>
  <rect x="120" y="230" width="260" height="8" rx="4" fill="#D1D5DB"/>
  <rect x="120" y="250" width="240" height="8" rx="4" fill="#D1D5DB"/>
  <rect x="120" y="270" width="260" height="8" rx="4" fill="#D1D5DB"/>
  <rect x="120" y="290" width="200" height="8" rx="4" fill="#D1D5DB"/>
  
  <!-- Message 3 - User -->
  <rect x="400" y="320" width="300" height="40" rx="8" fill="#4F46E5"/>
  <rect x="420" y="330" width="260" height="8" rx="4" fill="#A5B4FC"/>
  <rect x="420" y="350" width="160" height="8" rx="4" fill="#A5B4FC"/>
  
  <!-- Input area -->
  <rect x="100" y="390" width="600" height="40" rx="20" fill="#374151"/>
  <rect x="120" y="406" width="200" height="8" rx="4" fill="#6B7280"/>
  <circle cx="680" cy="410" r="15" fill="#4F46E5"/>
  
  <!-- Decorative elements -->
  <circle cx="750" cy="80" r="8" fill="#10B981"/>
  <circle cx="720" cy="80" r="8" fill="#6366F1"/>
  <circle cx="690" cy="80" r="8" fill="#F59E0B"/>
  
  <!-- Telepathia AI Logo -->
  <text x="400" y="470" font-family="Arial" font-size="16" fill="#6366F1" text-anchor="middle">Telepathia AI</text>
</svg>
